<svg xmlns="http://www.w3.org/2000/svg" viewBox="0 0 800 600" width="100%" height="100%">
  <rect width="800" height="600" fill="#0c1222"/>
  <g stroke="#1e293b" stroke-width="1" stroke-dasharray="4 4">
    <line x1="50" y1="100" x2="750" y2="100"/>
    <line x1="50" y1="200" x2="750" y2="200"/>
    <line x1="50" y1="300" x2="750" y2="300"/>
    <line x1="50" y1="400" x2="750" y2="400"/>
  </g>
  <!-- Bar chart bars -->
  <rect x="100" y="320" width="45" height="180" rx="6" fill="#38bdf8"/>
  <rect x="180" y="240" width="45" height="260" rx="6" fill="#0ea5e9"/>
  <rect x="260" y="180" width="45" height="320" rx="6" fill="#0284c7"/>
  <rect x="340" y="220" width="45" height="280" rx="6" fill="#38bdf8"/>
  <rect x="420" y="140" width="45" height="360" rx="6" fill="#6366f1"/>
  <rect x="500" y="260" width="45" height="240" rx="6" fill="#818cf8"/>
  <rect x="580" y="200" width="45" height="300" rx="6" fill="#a855f7"/>
  <rect x="660" y="110" width="45" height="390" rx="6" fill="#c084fc"/>
  <text x="400" y="65" fill="#f8fafc" font-family="sans-serif" font-size="24" font-weight="bold" text-anchor="middle">EBBC OpenData Metrics &amp; Scientometrics</text>
</svg>