<svg xmlns="http://www.w3.org/2000/svg" viewBox="0 0 800 600" width="100%" height="100%">
  <defs>
    <linearGradient id="p-grad1" x1="0%" y1="0%" x2="100%" y2="100%">
      <stop offset="0%" stop-color="#18181b"/>
      <stop offset="100%" stop-color="#09090b"/>
    </linearGradient>
    <linearGradient id="area-grad" x1="0%" y1="0%" x2="0%" y2="100%">
      <stop offset="0%" stop-color="#3b82f6" stop-opacity="0.45"/>
      <stop offset="100%" stop-color="#3b82f6" stop-opacity="0.0"/>
    </linearGradient>
    <linearGradient id="line-grad" x1="0%" y1="0%" x2="100%" y2="0%">
      <stop offset="0%" stop-color="#60a5fa"/>
      <stop offset="100%" stop-color="#3b82f6"/>
    </linearGradient>
  </defs>
  <rect width="800" height="600" fill="url(#p-grad1)"/>
  <g stroke="#27272a" stroke-width="1" stroke-dasharray="4 4">
    <line x1="80" y1="100" x2="720" y2="100"/>
    <line x1="80" y1="200" x2="720" y2="200"/>
    <line x1="80" y1="300" x2="720" y2="300"/>
    <line x1="80" y1="400" x2="720" y2="400"/>
    <line x1="80" y1="500" x2="720" y2="500"/>
  </g>
  <path d="M 80 430 C 180 410, 240 220, 340 260 C 440 300, 500 140, 600 160 C 660 170, 690 120, 720 110 L 720 500 L 80 500 Z" fill="url(#area-grad)"/>
  <path d="M 80 430 C 180 410, 240 220, 340 260 C 440 300, 500 140, 600 160 C 660 170, 690 120, 720 110" fill="none" stroke="url(#line-grad)" stroke-width="4" stroke-linecap="round"/>
  <circle cx="340" cy="260" r="6" fill="#60a5fa" stroke="#18181b" stroke-width="3"/>
  <circle cx="600" cy="160" r="6" fill="#60a5fa" stroke="#18181b" stroke-width="3"/>
  <circle cx="720" cy="110" r="6" fill="#38bdf8" stroke="#18181b" stroke-width="3"/>
  <!-- Tooltip preview -->
  <rect x="530" y="80" width="140" height="55" rx="8" fill="#27272a" stroke="#3f3f46" stroke-width="1"/>
  <text x="600" y="105" fill="#a1a1aa" font-family="monospace" font-size="12" text-anchor="middle">Series A · +42%</text>
  <text x="600" y="123" fill="#f4f4f5" font-family="sans-serif" font-weight="bold" font-size="14" text-anchor="middle">1,429 views</text>
</svg>